<svg width="25" height="22" viewBox="0 0 25 22" fill="none" xmlns="http://www.w3.org/2000/svg">
<path d="M15.6099 4.19567C15.6335 4.13792 15.6791 4.08767 15.7401 4.05206C15.8011 4.01644 15.8744 3.99727 15.9497 3.99727C16.0249 3.99727 16.0982 4.01644 16.1592 4.05206C16.2202 4.08767 16.2658 4.13792 16.2894 4.19567L16.9278 5.74512C17.2131 6.43585 17.8828 6.97722 18.7372 7.20791L20.6539 7.72395C20.7253 7.74307 20.7875 7.7799 20.8315 7.82921C20.8756 7.87852 20.8993 7.93781 20.8993 7.99864C20.8993 8.05946 20.8756 8.11875 20.8315 8.16806C20.7875 8.21737 20.7253 8.2542 20.6539 8.27332L18.7372 8.78936C18.3156 8.90249 17.9324 9.09364 17.6183 9.34759C17.3042 9.60155 17.0677 9.91129 16.9278 10.2521L16.2894 11.8016C16.2658 11.8593 16.2202 11.9096 16.1592 11.9452C16.0982 11.9808 16.0249 12 15.9497 12C15.8744 12 15.8011 11.9808 15.7401 11.9452C15.6791 11.9096 15.6335 11.8593 15.6099 11.8016L14.9715 10.2521C14.8316 9.91129 14.5951 9.60155 14.281 9.34759C13.9669 9.09364 13.5837 8.90249 13.1621 8.78936L11.2454 8.27332C11.174 8.2542 11.1118 8.21737 11.0678 8.16806C11.0237 8.11875 11 8.05946 11 7.99864C11 7.93781 11.0237 7.87852 11.0678 7.82921C11.1118 7.7799 11.174 7.74307 11.2454 7.72395L13.1621 7.20791C13.5837 7.09478 13.9669 6.90363 14.281 6.64968C14.5951 6.39572 14.8316 6.08598 14.9715 5.74512L15.6099 4.19567ZM20.672 0.130014C20.6883 0.0920459 20.7188 0.0591227 20.7593 0.0358218C20.7998 0.0125209 20.8483 0 20.898 0C20.9477 0 20.9962 0.0125209 21.0367 0.0358218C21.0772 0.0591227 21.1077 0.0920459 21.124 0.130014L21.5495 1.1621C21.7392 1.62347 22.1862 1.98483 22.7569 2.13817L24.0336 2.4822C24.0806 2.49536 24.1213 2.52003 24.1501 2.55277C24.179 2.58551 24.1944 2.6247 24.1944 2.66488C24.1944 2.70507 24.179 2.74425 24.1501 2.77699C24.1213 2.80973 24.0806 2.8344 24.0336 2.84756L22.7569 3.19159C22.4759 3.26759 22.2206 3.39532 22.0111 3.56471C21.8016 3.73409 21.6436 3.9405 21.5495 4.16767L21.124 5.19975C21.1077 5.23772 21.0772 5.27064 21.0367 5.29394C20.9962 5.31724 20.9477 5.32976 20.898 5.32976C20.8483 5.32976 20.7998 5.31724 20.7593 5.29394C20.7188 5.27064 20.6883 5.23772 20.672 5.19975L20.2465 4.16767C20.1525 3.9405 19.9945 3.73409 19.7849 3.56471C19.5754 3.39532 19.3201 3.26759 19.0391 3.19159L17.7624 2.84756C17.7154 2.8344 17.6747 2.80973 17.6459 2.77699C17.6171 2.74425 17.6016 2.70507 17.6016 2.66488C17.6016 2.6247 17.6171 2.58551 17.6459 2.55277C17.6747 2.52003 17.7154 2.49536 17.7624 2.4822L19.0391 2.13817C19.6098 1.98483 20.0568 1.62347 20.2465 1.1621L20.672 0.130014Z" fill="black"/>
<path d="M9.71077 0.368559C9.86835 0.526115 9.96488 0.718702 9.98795 0.921577C10.011 1.12445 9.95959 1.32835 9.84025 1.50708C8.90403 2.91542 8.41534 4.49436 8.41924 6.0983C8.41924 11.4339 13.7246 15.7545 20.2631 15.7545C21.1177 15.7536 21.9447 15.6828 22.7442 15.5422C22.9888 15.4993 23.2434 15.5161 23.4764 15.5906C23.7094 15.6652 23.9107 15.7941 24.0552 15.9615C24.2081 16.1356 24.2861 16.3465 24.2771 16.561C24.268 16.7754 24.1723 16.9814 24.005 17.1464C22.7356 18.4248 21.1342 19.4548 19.3176 20.1614C17.501 20.8679 15.5151 21.2333 13.5044 21.2308C6.04334 21.2308 0 16.3025 0 10.2304C0 5.66041 3.42143 1.74062 8.293 0.0792852C8.53558 -0.00524102 8.80513 -0.0227318 9.06091 0.029456C9.31669 0.0816439 9.5448 0.200674 9.71077 0.368559ZM7.86249 1.73929C5.9894 2.56321 4.42352 3.78775 3.33124 5.28282C2.23895 6.77789 1.66104 8.48763 1.65892 10.2304C1.65892 15.5647 6.96586 19.8852 13.5044 19.8852C15.0702 19.8872 16.6208 19.6346 18.0668 19.1422C19.5127 18.6498 20.8253 17.9273 21.9285 17.0164C21.3826 17.0721 20.8274 17.1 20.2631 17.1C12.802 17.1 6.76031 12.1717 6.76031 6.09963C6.76031 4.55108 7.15198 3.07685 7.86249 1.73929Z" fill="black"/>
</svg>
