<svg width="23" height="17" viewBox="0 0 23 17" fill="none" xmlns="http://www.w3.org/2000/svg">
<path opacity="0.4" d="M11.5 11.6875C10.3563 11.6875 9.25935 11.3517 8.4506 10.7539C7.64185 10.1561 7.1875 9.34538 7.1875 8.5C7.1875 7.65462 7.64185 6.84387 8.4506 6.2461C9.25935 5.64833 10.3563 5.3125 11.5 5.3125C12.6437 5.3125 13.7406 5.64833 14.5494 6.2461C15.3581 6.84387 15.8125 7.65462 15.8125 8.5C15.8125 9.34538 15.3581 10.1561 14.5494 10.7539C13.7406 11.3517 12.6437 11.6875 11.5 11.6875ZM11.5 12.75C13.025 12.75 14.4875 12.3022 15.5659 11.5052C16.6442 10.7082 17.25 9.62717 17.25 8.5C17.25 7.37283 16.6442 6.29183 15.5659 5.4948C14.4875 4.69777 13.025 4.25 11.5 4.25C9.97501 4.25 8.51247 4.69777 7.43414 5.4948C6.3558 6.29183 5.75 7.37283 5.75 8.5C5.75 9.62717 6.3558 10.7082 7.43414 11.5052C8.51247 12.3022 9.97501 12.75 11.5 12.75ZM11.5 0C11.6906 0 11.8734 0.0559708 12.0082 0.1556C12.143 0.255228 12.2188 0.390354 12.2188 0.53125V2.65625C12.2188 2.79715 12.143 2.93227 12.0082 3.0319C11.8734 3.13153 11.6906 3.1875 11.5 3.1875C11.3094 3.1875 11.1266 3.13153 10.9918 3.0319C10.857 2.93227 10.7813 2.79715 10.7813 2.65625V0.53125C10.7813 0.390354 10.857 0.255228 10.9918 0.1556C11.1266 0.0559708 11.3094 0 11.5 0ZM11.5 13.8125C11.6906 13.8125 11.8734 13.8685 12.0082 13.9681C12.143 14.0677 12.2188 14.2029 12.2188 14.3438V16.4688C12.2188 16.6096 12.143 16.7448 12.0082 16.8444C11.8734 16.944 11.6906 17 11.5 17C11.3094 17 11.1266 16.944 10.9918 16.8444C10.857 16.7448 10.7813 16.6096 10.7813 16.4688V14.3438C10.7813 14.2029 10.857 14.0677 10.9918 13.9681C11.1266 13.8685 11.3094 13.8125 11.5 13.8125ZM23 8.5C23 8.6409 22.9243 8.77602 22.7895 8.87565C22.6547 8.97528 22.4719 9.03125 22.2813 9.03125H19.4063C19.2156 9.03125 19.0328 8.97528 18.898 8.87565C18.7632 8.77602 18.6875 8.6409 18.6875 8.5C18.6875 8.3591 18.7632 8.22398 18.898 8.12435C19.0328 8.02472 19.2156 7.96875 19.4063 7.96875H22.2813C22.4719 7.96875 22.6547 8.02472 22.7895 8.12435C22.9243 8.22398 23 8.3591 23 8.5ZM4.3125 8.5C4.3125 8.6409 4.23677 8.77602 4.10198 8.87565C3.96719 8.97528 3.78437 9.03125 3.59375 9.03125H0.71875C0.528126 9.03125 0.345309 8.97528 0.210517 8.87565C0.0757252 8.77602 0 8.6409 0 8.5C0 8.3591 0.0757252 8.22398 0.210517 8.12435C0.345309 8.02472 0.528126 7.96875 0.71875 7.96875H3.59375C3.78437 7.96875 3.96719 8.02472 4.10198 8.12435C4.23677 8.22398 4.3125 8.3591 4.3125 8.5ZM19.6319 2.48944C19.7667 2.58906 19.8424 2.72416 19.8424 2.86503C19.8424 3.0059 19.7667 3.141 19.6319 3.24063L17.5993 4.74406C17.5325 4.79339 17.4532 4.8325 17.3659 4.85917C17.2786 4.88583 17.1851 4.89953 17.0906 4.89948C16.8999 4.89938 16.7171 4.84329 16.5823 4.74353C16.5155 4.69414 16.4626 4.63551 16.4266 4.571C16.3905 4.5065 16.3719 4.43737 16.372 4.36756C16.3721 4.22659 16.448 4.09143 16.583 3.99181L18.6156 2.48944C18.7504 2.38984 18.9332 2.3339 19.1238 2.3339C19.3144 2.3339 19.4972 2.38984 19.6319 2.48944ZM6.417 12.257C6.55175 12.3566 6.62744 12.4917 6.62744 12.6326C6.62744 12.7735 6.55175 12.9086 6.417 13.0082L4.38437 14.5106C4.24882 14.6073 4.06726 14.6609 3.87881 14.6597C3.69035 14.6585 3.51008 14.6026 3.37682 14.5041C3.24356 14.4056 3.16797 14.2723 3.16633 14.1331C3.16469 13.9938 3.23714 13.8596 3.36806 13.7594L5.40069 12.257C5.53547 12.1574 5.71826 12.1015 5.90884 12.1015C6.09943 12.1015 6.28222 12.1574 6.417 12.257ZM19.6319 14.5106C19.4972 14.6102 19.3144 14.6661 19.1238 14.6661C18.9332 14.6661 18.7504 14.6102 18.6156 14.5106L16.583 13.0082C16.4521 12.908 16.3796 12.7738 16.3813 12.6345C16.3829 12.4952 16.4585 12.362 16.5918 12.2635C16.725 12.165 16.9053 12.1091 17.0937 12.1079C17.2822 12.1067 17.4638 12.1602 17.5993 12.257L19.6319 13.7594C19.7667 13.859 19.8424 13.9941 19.8424 14.135C19.8424 14.2758 19.7667 14.4109 19.6319 14.5106ZM6.417 4.74406C6.28222 4.84366 6.09943 4.89961 5.90884 4.89961C5.71826 4.89961 5.53547 4.84366 5.40069 4.74406L3.36806 3.24063C3.29941 3.19162 3.24466 3.133 3.20699 3.06818C3.16932 3.00337 3.14949 2.93366 3.14866 2.86312C3.14783 2.79258 3.16602 2.72263 3.20216 2.65734C3.2383 2.59205 3.29167 2.53273 3.35915 2.48285C3.42664 2.43297 3.50689 2.39353 3.59522 2.36681C3.68355 2.3401 3.7782 2.32666 3.87363 2.32727C3.96907 2.32789 4.06338 2.34254 4.15107 2.37038C4.23876 2.39823 4.31807 2.4387 4.38437 2.48944L6.417 3.99181C6.48394 4.04116 6.53704 4.09979 6.57327 4.16433C6.60951 4.22887 6.62816 4.29806 6.62816 4.36794C6.62816 4.43782 6.60951 4.50701 6.57327 4.57155C6.53704 4.63609 6.48394 4.69471 6.417 4.74406Z" fill="black"/>
</svg>
